<svg version="1.1" id="Sale" xmlns="http://www.w3.org/2000/svg" x="0px" y="0px"
     viewBox="0 0 512.001 512.001" style="enable-background:new 0 0 512.001 512.001;" xml:space="preserve">
<g fill="#fff">
	<g>
		<path d="M432.871,225.933H79.128c-4.025,0-7.287,3.262-7.287,7.287c0,4.024,3.262,7.287,7.287,7.287h353.744
			c4.025,0,7.286-3.263,7.286-7.287C440.158,229.196,436.896,225.933,432.871,225.933z"/>
	</g>
	<g>
		<path d="M432.872,417.002H79.128c-4.025,0-7.287,3.262-7.287,7.287c0.001,4.025,3.262,7.287,7.287,7.287h353.744
			c4.025,0,7.287-3.262,7.287-7.287C440.159,420.265,436.897,417.002,432.872,417.002z"/>
	</g>
	<g>
		<path d="M504.713,348.384c-4.025,0-7.287,3.262-7.287,7.287v82.71c0,10.785-8.774,19.559-19.559,19.559H34.132
			c-10.785,0-19.559-8.774-19.559-19.559v-82.442c0-4.024-3.262-7.287-7.287-7.287c-4.025,0-7.286,3.262-7.286,7.286v82.442
			c0,18.82,15.311,34.132,34.132,34.132h443.736c18.821,0,34.132-15.312,34.132-34.132v-82.71
			C512,351.647,508.738,348.384,504.713,348.384z"/>
	</g>
	<g>
		<path d="M477.869,187.826h-65.924L285.26,61.139c-1.412-4.651-3.949-9.032-7.62-12.702c-11.932-11.932-31.346-11.932-43.28,0
			c-3.671,3.671-6.208,8.051-7.62,12.703L100.056,187.824H34.132C15.311,187.824,0,203.136,0,221.956v80.891
			c0,4.024,3.262,7.287,7.287,7.287c4.025,0,7.287-3.262,7.287-7.287v-80.891c-0.001-10.785,8.773-19.558,19.558-19.558h443.736
			c10.785,0,19.559,8.774,19.559,19.558v82.429c0,4.024,3.262,7.287,7.287,7.287c4.025,0,7.287-3.262,7.287-7.287v-82.429
			C512.001,203.136,496.69,187.826,477.869,187.826z M239.995,69.712c0.004-0.163,0.015-0.326,0.023-0.489
			c0.03-0.543,0.083-1.088,0.169-1.633c0.004-0.026,0.007-0.052,0.011-0.078c0.054-0.334,0.119-0.668,0.195-1.001
			c0-0.001,0-0.002,0-0.003c0.646-2.847,2.059-5.554,4.271-7.766c3.126-3.125,7.231-4.687,11.336-4.687
			c4.104,0,8.211,1.563,11.335,4.687c2.213,2.213,3.626,4.92,4.272,7.768v0.001c0.075,0.332,0.14,0.665,0.194,0.998
			c0.005,0.031,0.008,0.061,0.013,0.092c0.085,0.54,0.137,1.08,0.167,1.618c0.009,0.164,0.02,0.328,0.023,0.493
			c0.006,0.227,0.006,0.454,0.002,0.68c-0.006,0.33-0.02,0.659-0.047,0.988c-0.012,0.153-0.027,0.304-0.043,0.456
			c-0.041,0.371-0.093,0.742-0.16,1.11c-0.021,0.114-0.041,0.228-0.064,0.342c-0.09,0.445-0.195,0.888-0.323,1.325
			c-0.011,0.037-0.025,0.074-0.036,0.111c-0.127,0.421-0.274,0.838-0.436,1.249c-0.029,0.073-0.056,0.148-0.086,0.221
			c-0.177,0.431-0.373,0.855-0.589,1.272c-0.034,0.066-0.072,0.13-0.107,0.196c-0.202,0.377-0.42,0.747-0.655,1.11
			c-0.038,0.059-0.074,0.12-0.113,0.179c-0.258,0.387-0.537,0.764-0.832,1.132c-0.066,0.082-0.134,0.163-0.201,0.244
			c-0.31,0.372-0.632,0.736-0.98,1.085c-6.25,6.25-16.42,6.25-22.671,0c-0.349-0.349-0.671-0.714-0.981-1.086
			c-0.067-0.08-0.134-0.16-0.2-0.242c-0.295-0.369-0.575-0.747-0.833-1.135c-0.038-0.057-0.073-0.117-0.11-0.174
			c-0.236-0.365-0.456-0.737-0.659-1.117c-0.034-0.064-0.071-0.126-0.104-0.19c-0.217-0.418-0.414-0.844-0.591-1.276
			c-0.029-0.071-0.056-0.142-0.084-0.213c-0.164-0.415-0.312-0.835-0.44-1.26c-0.01-0.035-0.023-0.068-0.033-0.103
			c-0.129-0.439-0.233-0.883-0.324-1.329c-0.023-0.112-0.043-0.226-0.063-0.339c-0.067-0.371-0.12-0.743-0.161-1.117
			c-0.016-0.148-0.03-0.295-0.042-0.444c-0.027-0.331-0.041-0.663-0.047-0.995C239.988,70.165,239.989,69.938,239.995,69.712z
			 M120.666,187.824L227.425,81.065c0.425,1.106,0.922,2.185,1.476,3.238c0.009,0.018,0.02,0.036,0.029,0.054
			c0.221,0.419,0.451,0.834,0.692,1.243c0.037,0.064,0.078,0.126,0.116,0.19c0.22,0.367,0.444,0.731,0.68,1.089
			c0.073,0.111,0.152,0.219,0.226,0.329c0.211,0.311,0.421,0.621,0.644,0.925c0.121,0.166,0.251,0.326,0.376,0.49
			c0.189,0.247,0.374,0.496,0.571,0.738c0.187,0.23,0.385,0.453,0.579,0.678c0.149,0.173,0.292,0.349,0.445,0.519
			c0.355,0.394,0.722,0.781,1.101,1.16c0.746,0.746,1.521,1.445,2.321,2.097c5.604,4.568,12.461,6.851,19.318,6.851
			c3.918,0,7.837-0.746,11.521-2.237c3.685-1.491,7.136-3.729,10.119-6.712c0.38-0.38,0.747-0.767,1.102-1.162
			c0.137-0.152,0.264-0.309,0.397-0.463c0.212-0.244,0.426-0.487,0.629-0.736c0.181-0.223,0.352-0.453,0.526-0.68
			c0.14-0.183,0.286-0.364,0.422-0.55c0.209-0.285,0.406-0.577,0.604-0.868c0.088-0.13,0.181-0.258,0.267-0.389
			c0.225-0.342,0.439-0.691,0.65-1.041c0.048-0.08,0.099-0.158,0.146-0.238c0.233-0.396,0.454-0.797,0.669-1.201
			c0.017-0.033,0.036-0.065,0.053-0.097c0.552-1.05,1.047-2.126,1.471-3.228l106.76,106.76H120.666z"/>
	</g>
	<g>
		<path d="M91.642,302.164c0-9.995,8.25-14.437,19.831-14.437c13.486,0,17.61,6.028,21.894,6.028c4.76,0,6.981-5.87,6.981-9.043
			c0-8.726-18.563-11.423-28.875-11.423c-16.975,0-36.648,6.981-36.648,30.461c0,38.076,51.562,27.13,51.562,55.211
			c-0.001,11.423-8.568,16.818-19.991,16.818c-17.61,0-21.417-12.534-27.129-12.534c-3.967,0-7.298,5.235-7.298,9.043
			c0,7.933,14.437,18.721,35.062,18.721c20.942,0,36.173-11.106,36.173-33.793C143.204,315.015,91.642,325.644,91.642,302.164z"/>
	</g>
	<g>
		<path d="M247.436,381.33l-31.413-102.806c-1.271-3.808-6.03-5.711-10.79-5.711c-4.759,0-9.361,1.904-10.629,5.711L163.032,381.33
			c-0.158,0.476-0.158,0.952-0.158,1.428c0,4.125,5.87,6.981,10.471,6.981c2.856,0,5.077-0.952,5.87-3.491l6.505-22.528h39.187
			l6.505,22.528c0.793,2.538,3.014,3.491,5.712,3.491c4.76,0,10.63-3.014,10.63-6.981
			C247.754,382.283,247.596,381.806,247.436,381.33z M189.368,350.235l15.865-54.417l15.865,54.417H189.368z"/>
	</g>
	<g>
		<path d="M330.407,374.826h-41.25v-95.667c0.001-3.807-4.123-5.394-8.407-5.394c-4.125,0-8.409,1.587-8.409,5.394v105.027
			c0,3.649,3.807,5.553,7.456,5.553h50.61c3.332,0,5.077-3.807,5.077-7.457C335.484,378.475,333.739,374.826,330.407,374.826z"/>
	</g>
	<g>
		<path d="M424.009,374.827h-47.12v-36.49h24.433c3.807,0,5.553-3.49,5.553-6.505c0-3.649-2.063-6.822-5.553-6.822H376.89v-36.332
			h47.119v0c3.491,0,5.553-3.49,5.553-7.615c0-3.49-1.745-7.298-5.553-7.298h-56.48c-3.649,0-7.456,1.904-7.456,5.553v104.869
			c0,3.649,3.807,5.553,7.456,5.553h56.48c3.808,0,5.553-3.807,5.553-7.298C429.562,378.317,427.499,374.827,424.009,374.827z"/>
	</g>
</g>
</svg>
